<?xml version="1.0" encoding="UTF-8"?>
<svg width="105px" height="105px" viewBox="0 0 105 105" version="1.1" xmlns="http://www.w3.org/2000/svg" xmlns:xlink="http://www.w3.org/1999/xlink">
    <!-- Generator: Sketch 46.2 (44496) - http://www.bohemiancoding.com/sketch -->
    <title>play-icon</title>
    <desc>Created with Sketch.</desc>
    <defs></defs>
    <g id="App" stroke="none" stroke-width="1" fill="none" fill-rule="evenodd">
        <g id="play-icon" transform="translate(3.000000, 3.000000)">
            <circle id="Oval-9" stroke="#FFFFFF" stroke-width="5" cx="49.5" cy="49.5" r="49.5"></circle>
            <path d="M30.5702019,39.5947218 L61.2268515,32.7284589 L61.2268515,32.7284589 C62.3047168,32.4870462 63.374203,33.165125 63.6156158,34.2429903 C63.6800854,34.5308356 63.6800854,34.8293779 63.6156158,35.1172232 L56.749353,65.7738729 L56.749353,65.7738729 C56.5079402,66.8517382 55.438454,67.529817 54.3605887,67.2884042 C53.9905235,67.2055196 53.6516503,67.0191286 53.3834916,66.75097 L29.5931048,42.9605831 L29.5931048,42.9605831 C28.8120562,42.1795345 28.8120562,40.9132046 29.5931048,40.132156 C29.8612634,39.8639973 30.2001366,39.6776064 30.5702019,39.5947218 Z" id="Rectangle-22" fill="#FFFFFF" transform="translate(46.671714, 49.672361) rotate(-315.000000) translate(-46.671714, -49.672361) "></path>
        </g>
    </g>
</svg>