<?xml version="1.0" encoding="UTF-8"?>
<svg width="129px" height="129px" viewBox="0 0 129 129" version="1.1" xmlns="http://www.w3.org/2000/svg" xmlns:xlink="http://www.w3.org/1999/xlink">
    <!-- Generator: Sketch 47 (45396) - http://www.bohemiancoding.com/sketch -->
    <title>play-icon</title>
    <desc>Created with Sketch.</desc>
    <defs></defs>
    <g id="Site" stroke="none" stroke-width="1" fill="none" fill-rule="evenodd">
        <g id="play-icon">
            <circle id="Oval-5" fill="#51D6D0" cx="64.5" cy="64.5" r="64.5"></circle>
            <path d="M49.3709644,53.586755 L71.1753003,49.3030088 L71.1753003,49.3030088 C72.8010759,48.9836039 74.3779563,50.0426267 74.6973612,51.6684024 C74.7723935,52.0503181 74.7723914,52.443185 74.6973552,52.8250999 L70.4134926,74.6288436 L70.4134926,74.6288436 C70.0940711,76.254616 68.5171798,77.3136226 66.8914074,76.994201 C66.3068542,76.8793517 65.7697294,76.593067 65.3484797,76.1718288 L47.8280065,58.6518314 L47.8280065,58.6518314 C46.6564177,57.4802745 46.6563919,55.5807795 47.8279488,54.4091907 C48.2492141,53.9879141 48.7863724,53.7016057 49.3709644,53.586755 Z" id="Rectangle-15" fill="#FFFFFF" transform="translate(60.500000, 63.500000) rotate(-315.000000) translate(-60.500000, -63.500000) "></path>
        </g>
    </g>
</svg>