<?xml version="1.0" encoding="UTF-8"?>
<svg width="152px" height="52px" viewBox="0 0 152 52" version="1.1" xmlns="http://www.w3.org/2000/svg" xmlns:xlink="http://www.w3.org/1999/xlink">
    <!-- Generator: Sketch 46.2 (44496) - http://www.bohemiancoding.com/sketch -->
    <title>yello.</title>
    <desc>Created with Sketch.</desc>
    <defs></defs>
    <g id="App" stroke="none" stroke-width="1" fill="none" fill-rule="evenodd">
        <g id="welcome" transform="translate(-84.000000, -249.000000)" fill="#51D6D0">
            <path d="M92.428983,300.901752 C97.6826642,300.901752 100.280638,298.534709 102.878613,292.241838 L113.674639,266.319828 C113.847837,265.915699 114.078768,264.934242 114.078768,264.241449 C114.078768,261.932138 112.173587,260.200156 109.922009,260.200156 C107.670432,260.200156 106.400311,261.701207 105.707518,263.548656 L99.2414488,281.503544 L92.5444486,263.490923 C91.7939227,261.412544 90.5238019,260.200156 88.329957,260.200156 C85.9051811,260.200156 84,261.932138 84,264.414647 C84,264.991975 84.230931,265.857966 84.4618621,266.435294 L95.0269573,290.913984 L94.7382935,291.606777 C93.9300348,293.165562 93.1795089,293.454226 91.6207244,293.454226 C90.985664,293.454226 90.5238019,293.33876 89.7732761,293.107829 C89.4268795,292.992364 89.0227502,292.876898 88.329957,292.876898 C86.5402415,292.876898 84.8659914,294.320217 84.8659914,296.456329 C84.8659914,298.592441 86.3670432,299.631631 87.6371639,300.093493 C89.0804829,300.613088 90.4660692,300.901752 92.428983,300.901752 Z M125.913984,273.594156 L139.134786,273.594156 C138.615191,269.668328 136.305881,267.012621 132.610984,267.012621 C128.97382,267.012621 126.606777,269.610596 125.913984,273.594156 Z M144.215269,288.431475 C141.501829,290.740786 137.980131,292.184105 133.476976,292.184105 C124.182001,292.184105 117.311803,285.660303 117.311803,276.19213 L117.311803,276.076665 C117.311803,267.243552 123.604674,259.969225 132.610984,259.969225 C142.945148,259.969225 147.506037,268.45594 147.506037,274.864277 C147.506037,277.404518 145.716321,279.078768 143.407011,279.078768 L126.02945,279.078768 C126.895441,283.062329 129.666614,285.140708 133.592441,285.140708 C136.017217,285.140708 138.037864,284.390182 139.827579,283.062329 C140.46264,282.600467 141.039967,282.369536 141.963692,282.369536 C143.926605,282.369536 145.369924,283.870587 145.369924,285.833501 C145.369924,286.988156 144.85033,287.854148 144.215269,288.431475 Z M154.607166,287.450019 C154.607166,289.874794 156.57008,291.837708 158.994856,291.837708 C161.419632,291.837708 163.382546,289.874794 163.382546,287.450019 L163.382546,253.38769 C163.382546,250.962914 161.419632,249 158.994856,249 C156.57008,249 154.607166,250.962914 154.607166,253.38769 L154.607166,287.450019 Z M172.04246,287.450019 C172.04246,289.874794 174.005374,291.837708 176.43015,291.837708 C178.854926,291.837708 180.817839,289.874794 180.817839,287.450019 L180.817839,253.38769 C180.817839,250.962914 178.854926,249 176.43015,249 C174.005374,249 172.04246,250.962914 172.04246,253.38769 L172.04246,287.450019 Z M204.25734,292.184105 C194.673702,292.184105 187.572572,285.082975 187.572572,276.19213 L187.572572,276.076665 C187.572572,267.18582 194.731435,259.969225 204.372806,259.969225 C213.956444,259.969225 221.057573,267.070354 221.057573,275.961199 L221.057573,276.076665 C221.057573,284.96751 213.898711,292.184105 204.25734,292.184105 Z M204.372806,284.621113 C209.395556,284.621113 212.397659,280.753018 212.397659,276.19213 L212.397659,276.076665 C212.397659,271.515777 209.106892,267.532216 204.25734,267.532216 C199.23459,267.532216 196.232486,271.400311 196.232486,275.961199 L196.232486,276.076665 C196.232486,280.637553 199.523254,284.621113 204.372806,284.621113 Z M225.560729,286.814958 L225.560729,286.930424 C225.560729,289.701596 227.696841,291.837708 230.583479,291.837708 C233.470117,291.837708 235.606229,289.701596 235.606229,286.930424 L235.606229,286.814958 C235.606229,284.043786 233.470117,281.907674 230.583479,281.907674 C227.696841,281.907674 225.560729,284.043786 225.560729,286.814958 Z" id="yello."></path>
        </g>
    </g>
</svg>